PathFileType	4	(X/Y/Z)	C:/Users/opensim2020/Desktop/walking_exp_matlab/subject02_walking06_straight_04.trc	
DataRate	CameraRate	NumFrames	NumMarkers	Units	OrigDataRate	OrigDataStartFrame	OrigNumFrames	
100.00	100.00	4	41	mm	100.00	2817	216	
Frame#	Time	LFHD			RFHD			LBHD			RBHD			C7			T10			CLAV			STRN			RBAK			LSHO			LUPA			LELB			LFRM			LWRA			LWRB			LFIN			RSHO			RUPA			RELB			RFRM			RWRA			RWRB			RFIN			LASI			RASI			LPSI			RPSI			LTHI			LKNE			LTIB			LANK			LHEE			LTOE			RTHI			RKNE			RTIB			RANK			RHEE			RTOE			*39			*40			
		X1	Y1	Z1	X2	Y2	Z2	X3	Y3	Z3	X4	Y4	Z4	X5	Y5	Z5	X6	Y6	Z6	X7	Y7	Z7	X8	Y8	Z8	X9	Y9	Z9	X10	Y10	Z10	X11	Y11	Z11	X12	Y12	Z12	X13	Y13	Z13	X14	Y14	Z14	X15	Y15	Z15	X16	Y16	Z16	X17	Y17	Z17	X18	Y18	Z18	X19	Y19	Z19	X20	Y20	Z20	X21	Y21	Z21	X22	Y22	Z22	X23	Y23	Z23	X24	Y24	Z24	X25	Y25	Z25	X26	Y26	Z26	X27	Y27	Z27	X28	Y28	Z28	X29	Y29	Z29	X30	Y30	Z30	X31	Y31	Z31	X32	Y32	Z32	X33	Y33	Z33	X34	Y34	Z34	X35	Y35	Z35	X36	Y36	Z36	X37	Y37	Z37	X38	Y38	Z38	X39	Y39	Z39	X40	Y40	Z40	X41	Y41	Z41	

163	1.620	-1005.30164	-842.51788	1725.12146	-1147.69751	-844.87231	1708.97485	-1002.54926	-704.99963	1664.18542	-1144.24963	-694.67761	1647.43103	-1083.30066	-640.62738	1524.19031	-1096.78259	-583.10669	1247.18408	-1063.15564	-778.59045	1452.35291	-1080.77698	-829.83685	1282.04297	-1160.92639	-584.43298	1352.62036	-901.27594	-691.14136	1489.40344	-827.45190	-619.22150	1303.84290	-819.24292	-576.78772	1170.36597	-798.89319	-540.06610	1045.80530	-807.93719	-556.40887	905.83624	-789.65826	-506.82990	926.53601	-779.33551	-502.62152	860.58356	-1262.08960	-731.02771	1499.83496	-1361.93518	-748.13678	1314.07104	-1383.82007	-804.17859	1175.87939	-1391.63965	-876.29010	1078.09644	-1358.72083	-962.68494	979.07104	-1398.22339	-928.62366	958.49988	-1393.09924	-988.32166	918.24213	-961.79431	-821.81964	987.12988	-1218.78638	-812.04773	970.35754	-1035.80151	-608.53412	1027.74817	-1149.76465	-599.03754	1027.84546	-883.98499	-805.32428	682.84381	-913.76794	-838.04968	483.69592	-916.72418	-840.47620	289.65683	-927.30579	-922.94025	77.90934	-987.16998	-913.51038	44.09248	-878.00586	-1071.24158	78.65012	-1260.96252	-702.00024	664.51495	-1211.06995	-669.16339	457.11411	-1210.33020	-601.19177	280.92300	-1164.02258	-557.79620	93.10940	-1106.96680	-518.43628	42.32643	-1181.60291	-705.05902	32.67858	-1096.06165	-750.16949	1801.69592			 
164	1.630	-1003.70178	-851.99438	1723.65234	-1145.95935	-854.25037	1707.53406	-1001.17169	-713.78101	1662.87927	-1143.16492	-703.84412	1646.77686	-1082.11243	-649.54205	1522.98523	-1095.62402	-591.70129	1246.09351	-1061.97852	-787.31476	1451.06396	-1079.74084	-838.57635	1280.85522	-1159.74622	-592.98474	1351.51331	-900.21454	-699.74066	1488.27881	-826.85583	-626.54291	1303.57092	-819.01227	-582.87738	1170.34302	-799.20776	-544.43365	1046.04614	-807.24164	-559.48541	906.09906	-789.88257	-509.97809	927.38495	-779.44989	-504.01120	861.70068	-1261.08032	-739.78015	1498.57251	-1360.39575	-758.00342	1312.79541	-1382.48950	-815.24872	1175.18835	-1389.97852	-888.20392	1077.81836	-1357.13721	-975.57574	980.12531	-1396.57593	-941.70508	958.95868	-1391.43274	-1001.79285	919.33850	-961.63019	-830.93335	985.65521	-1218.65417	-820.18225	969.03320	-1034.68823	-617.41632	1026.53333	-1148.58850	-607.53302	1026.70313	-883.69287	-814.26068	681.28546	-914.67279	-848.37946	482.36487	-916.19971	-855.60248	288.57788	-926.45203	-943.27081	78.99783	-986.21558	-934.22626	44.97969	-878.69385	-1092.42554	81.56617	-1260.55383	-707.80011	663.90570	-1210.75232	-673.41095	456.65823	-1210.06360	-603.52826	281.19507	-1163.80029	-558.39270	93.78283	-1106.51782	-518.65991	43.03600	-1181.70020	-705.16528	32.65789	-1094.38953	-759.85425	1800.54065			 
165	1.640	-1002.17218	-861.36560	1722.01001	-1144.46021	-863.69751	1706.35071	-1000.01056	-722.79193	1661.47803	-1141.72717	-713.10468	1645.74780	-1081.18909	-658.29602	1522.00696	-1094.48975	-600.39716	1244.94714	-1060.85657	-795.88641	1449.68030	-1078.61694	-847.06934	1279.51489	-1157.70117	-601.91370	1350.18677	-899.20752	-708.18573	1487.16760	-826.47266	-634.05182	1302.96692	-819.23102	-588.71521	1170.06958	-799.24261	-549.08948	1046.12024	-806.55573	-562.57996	906.08069	-789.96545	-513.69415	928.25116	-779.49811	-506.25876	862.39008	-1259.99072	-748.59564	1497.27417	-1358.97302	-767.73755	1311.43884	-1381.50684	-826.08044	1174.53638	-1388.41089	-899.94232	1077.77710	-1355.34290	-987.98700	980.71777	-1394.69446	-954.45386	959.24976	-1389.58679	-1014.83234	920.23602	-961.47479	-840.12177	984.24402	-1218.38843	-828.49493	967.59076	-1033.44800	-626.34998	1025.34314	-1147.45007	-616.20502	1025.64417	-883.49512	-824.02551	679.86542	-915.60022	-858.72827	480.98248	-915.91510	-869.95441	287.68268	-925.62006	-962.13452	79.99180	-985.42981	-953.34546	45.99663	-879.08026	-1111.86511	84.04744	-1260.08313	-713.85345	663.26770	-1210.30017	-677.83612	456.23001	-1209.74707	-605.93201	281.51926	-1163.54358	-558.99249	94.54708	-1105.97339	-519.38263	43.83613	-1181.81750	-705.24115	32.59911	-1092.83960	-769.40515	1799.51099			 
166	1.650	-1000.57391	-870.26837	1720.32532	-1142.44263	-872.96539	1704.80151	-998.85712	-731.95813	1660.45667	-1140.45178	-722.14990	1644.88232	-1080.11694	-667.12415	1520.89880	-1093.68286	-609.11560	1243.80286	-1059.50586	-804.83588	1448.49902	-1077.33923	-855.93689	1278.40356	-1156.91968	-610.44006	1348.97131	-898.09302	-716.67664	1486.02197	-825.93469	-640.89331	1302.16150	-819.14410	-595.27100	1169.74500	-799.28625	-554.66302	1046.48535	-805.83624	-566.49854	905.96558	-789.81982	-516.89288	928.57629	-779.47650	-508.87668	862.88977	-1258.87219	-757.47589	1495.87268	-1357.24255	-777.15277	1309.94165	-1379.52612	-836.72894	1173.38989	-1386.69470	-911.20435	1077.36389	-1353.42273	-1000.01801	981.06781	-1392.75586	-966.68817	959.27991	-1387.67029	-1027.44360	920.92456	-961.10748	-849.03955	982.62537	-1217.92834	-836.99487	966.09430	-1032.16736	-635.18408	1024.25049	-1146.29358	-625.07349	1024.63989	-883.45380	-833.23859	678.16156	-916.44141	-868.99536	479.65448	-915.98065	-883.54163	286.85406	-925.22430	-979.31287	80.80403	-984.34082	-970.74231	46.95264	-879.43195	-1129.41309	86.17930	-1259.50549	-720.13007	662.64337	-1210.01624	-682.47107	455.81265	-1209.40356	-608.42010	281.94113	-1163.31116	-559.54651	95.31438	-1105.73157	-519.37823	44.95166	-1181.94861	-705.50580	32.65070	-1091.10168	-778.95245	1798.28101			 
